<?xml version="1.0" encoding="UTF-8"?>
<svg id="Layer_2" data-name="Layer 2" xmlns="http://www.w3.org/2000/svg" viewBox="0 0 138.33 141.86">
  <defs>
    <style>
      .cls-1 {
        fill: #fff;
      }

      .cls-2 {
        fill: #e54446;
      }
    </style>
  </defs>
  <g id="Layer_1-2" data-name="Layer 1">
    <g>
      <rect class="cls-1" x="13.98" y="20.64" width="115.77" height="106.61"/>
      <path class="cls-2" d="M103.87,0H34.47C15.51,0,0,15.51,0,34.47v72.93c0,18.96,15.51,34.47,34.47,34.47h103.87V34.47C138.33,15.51,122.82,0,103.87,0ZM97.06,119.15h-19.1l5.25-13.93c-2.18.39-4.36.54-6.1.54-4.89,0-9-1.62-12.34-4.86-2.21-2.14-3.67-4.89-4.42-8.22l-.75,1.48c-1.65,3.96-5.41,7.31-8.88,9.19-3.47,1.88-8.48,2.4-11.85,2.4-4.89,0-9-1.62-12.34-4.86-3.34-3.24-5-7.83-5-13.77v-41.82h16.85v37.36c0,3.24.66,5.68,1.98,7.33,1.32,1.65,3.2,2.48,5.65,2.48,2.31,0,4.64-.79,6.99-2.38,2.34-1.58,4.6-3.79,6.77-6.62v-38.17h16.86v37.99c.08,2.92.73,5.16,1.96,6.7,1.32,1.65,3.2,2.48,5.65,2.48,1.35,0,2.71-.28,4.08-.82l22.33-59.22h19.1l-32.7,86.71Z"/>
    </g>
  </g>
</svg>