<?xml version="1.0" encoding="UTF-8"?>
<svg id="Layer_2" data-name="Layer 2" xmlns="http://www.w3.org/2000/svg" viewBox="0 0 140.11 141.11">
  <defs>
    <style>
      .cls-1 {
        fill: #fff;
      }

      .cls-2 {
        fill: #e54446;
      }
    </style>
  </defs>
  <g id="Layer_1-2" data-name="Layer 1">
    <g>
      <path class="cls-1" d="M35.95,0h68.22c19.84,0,35.95,16.11,35.95,35.95v63.22c0,23.15-18.8,41.95-41.95,41.95h-62.22C16.11,141.11,0,125.01,0,105.17V35.95C0,16.11,16.11,0,35.95,0Z"/>
      <path class="cls-2" d="M129.34,104.39c-4.89,0-9-1.62-12.34-4.86-2.21-2.14-3.67-4.89-4.42-8.22l-.75,1.48c-1.65,3.96-5.41,7.31-8.88,9.19-3.47,1.88-8.48,2.4-11.85,2.4-4.89,0-9-1.62-12.34-4.86-3.34-3.24-5-7.83-5-13.77v-41.82h16.85v37.36c0,3.24.66,5.68,1.98,7.33,1.32,1.65,3.2,2.48,5.65,2.48,2.31,0,4.64-.79,6.99-2.38,2.34-1.58,4.6-3.79,6.77-6.62v-38.17h16.86v37.99c.08,2.92.73,5.16,1.96,6.7,1.32,1.65,3.2,2.48,5.65,2.48,1.21,0,2.42-.22,3.64-.66v-55.99C140.11,15.51,124.6,0,105.64,0H34.47C15.51,0,0,15.51,0,34.47v72.18c0,18.96,15.51,34.47,34.47,34.47h105.64v-38.63c-3.37,1.46-7.74,1.9-10.77,1.9ZM37.15,114.25h-19.1L54.64,20.51h19.1l-36.6,93.74Z"/>
    </g>
  </g>
</svg>